<svg width="40" height="40" viewBox="0 0 40 40" fill="none" xmlns="http://www.w3.org/2000/svg">
<g clip-path="url(#clip0_2235_65)">
<path fill-rule="evenodd" clip-rule="evenodd" d="M29.7513 10.6383C29.7513 10.3723 29.7513 10.0532 29.7513 9.78723C29.7513 4.3617 25.3203 0 19.8342 0C14.3481 0 9.9171 4.3617 9.9171 9.78723C9.9171 10.1064 9.9171 10.3723 9.9171 10.6383C4.43104 10.6383 0 15 0 20.4255C0 25.8511 4.43104 30.2128 9.9171 30.2128C9.9171 32.9255 11.0249 35.3723 12.8184 37.1277C14.6119 38.883 17.0912 40 19.8342 40C25.3203 40 29.7513 35.6383 29.7513 30.2128C35.2374 30.2128 39.6684 25.8511 39.6684 20.4255C39.6684 15 35.2374 10.6383 29.7513 10.6383ZM19.5177 33.7766C17.8824 26.383 11.2886 20.8511 5.96081 20.3723C11.3414 19.5745 18.7264 15.2128 19.5177 6.96809C20.4145 14.3617 27.5885 19.8404 33.0746 20.3723C27.5358 21.0638 20.6255 26.2766 19.5177 33.7766Z" fill="white"/>
</g>
<defs>
<clipPath id="clip0_2235_65">
<rect width="40" height="40" fill="white"/>
</clipPath>
</defs>
</svg>
