<svg width="64" height="64" viewBox="0 0 64 64" fill="none" xmlns="http://www.w3.org/2000/svg">
<path fill-rule="evenodd" clip-rule="evenodd" d="M32 61.037C48.0367 61.037 61.037 48.0367 61.037 32C61.037 15.9633 48.0367 2.96297 32 2.96297C15.9633 2.96296 2.96296 15.9633 2.96296 32C2.96296 48.0367 15.9633 61.037 32 61.037ZM32 64C49.6731 64 64 49.6731 64 32C64 14.3269 49.6731 5.46193e-06 32 3.51864e-06C14.3269 1.57535e-06 -1.57535e-06 14.3269 -3.51864e-06 32C-5.46193e-06 49.6731 14.3269 64 32 64Z" fill="white"/>
<path d="M28.9586 49.0322C20.2493 49.0322 14.3984 43.9309 14.3984 33.1825C14.3984 22.4342 21.0206 15.9668 33.4042 15.9668C42.8848 15.9668 47.4655 19.9743 48.4187 25.7133L38.2126 26.5784C37.6679 23.8003 36.1712 22.3882 33.4946 22.3882C29.6395 22.3882 26.8725 25.1204 26.8725 32.2714C26.8725 39.4224 29.6852 41.972 33.9935 41.972C36.3073 41.972 37.7126 41.2435 38.4392 40.6966L38.4392 37.1901L32.4064 37.1901L32.4064 30.4952L49.5984 30.4952L49.5984 48.4394L39.3466 48.4394C39.3466 46.9365 39.5285 45.7072 39.7551 44.3399C38.6669 46.0254 35.6722 49.0311 28.9597 49.0311L28.9586 49.0322Z" fill="white"/>
</svg>
