<svg width="831" height="225" viewBox="0 0 831 225" fill="none" xmlns="http://www.w3.org/2000/svg">
<path fill-rule="evenodd" clip-rule="evenodd" d="M253.712 215.323C304.986 221.129 359.405 224.032 415.274 224.032C471.386 224.032 525.805 221.129 576.837 215.323C626.177 209.758 670.679 201.532 708.893 191.371C747.107 180.968 776.856 169.113 797.898 155.806C819.665 142.016 830.549 127.258 830.549 112.258C830.549 97.2581 819.665 82.5 797.898 68.7097C777.098 55.4032 747.107 43.3064 708.893 33.1452C670.679 22.7419 626.419 14.7581 576.837 9.19355C525.563 2.90323 471.386 0 415.274 0C359.163 0 304.744 2.90323 253.712 8.70968C204.372 14.2742 159.87 22.5 121.656 32.6613C83.4418 43.0645 53.693 54.9194 32.6512 68.2258C10.8837 82.2581 0 97.0161 0 112.016C0 127.016 10.8837 141.774 32.6512 155.565C53.4512 168.871 83.4418 180.968 121.656 191.129C159.87 201.532 204.13 209.516 253.712 215.081V215.323ZM255.163 22.5C305.953 16.6936 359.647 13.7903 415.274 13.7903C470.902 13.7903 524.595 16.6936 575.386 22.5C624.242 28.0645 667.777 36.0484 705.265 46.2097C741.544 55.8871 771.051 67.7419 790.4 80.0806C807.572 90.9677 816.521 102.097 816.521 112.016C816.521 121.935 807.33 133.065 790.4 143.952C771.051 156.29 741.544 168.145 705.265 177.823C667.777 187.984 624 195.968 575.386 201.532C524.595 207.339 470.902 210.242 415.274 210.242C359.647 210.242 305.953 207.339 255.163 201.532C206.307 195.968 162.772 187.984 125.284 177.823C89.0046 168.145 59.4977 156.29 40.1488 143.952C22.9767 133.065 14.0279 121.935 14.0279 112.016C14.0279 102.097 23.2186 90.9677 40.1488 80.0806C59.4977 67.7419 89.0046 55.8871 125.284 46.2097C162.772 36.0484 206.549 28.0645 255.163 22.5ZM80.5395 113.71C80.5395 141.048 95.5349 154.113 117.786 154.113C134.958 154.113 142.456 146.371 145.358 142.258C144.874 145.645 144.391 148.79 144.391 152.661H170.512V106.935H126.735V123.871H142.214V132.823C140.279 134.274 136.893 135.968 130.847 135.968C119.963 135.968 112.707 129.435 112.707 111.29C112.707 93.1452 119.721 86.129 129.637 86.129C139.553 86.129 140.279 89.7581 141.73 96.7742L167.851 94.5968C165.433 80.0806 153.823 69.9194 129.637 69.9194C105.451 69.9194 81.0233 86.371 81.0233 113.71H80.5395ZM672.614 73.7903C671.405 73.0645 670.195 72.0968 668.744 71.371H750.251V90.4839H723.647V152.419H694.623V90.4839H684.223C682.288 83.4678 678.419 77.9032 672.614 73.7903ZM253.47 152.661V71.6129H285.395L316.837 114.435V71.6129H339.814V152.661H312.484L276.447 103.306V152.661H253.47ZM512.744 152.661H480.577L466.549 122.177H450.586V152.661H422.288V71.6129H477.916C487.833 71.6129 496.056 74.0323 501.619 78.629C506.698 82.9839 509.358 88.7903 509.358 95.8064C509.358 108.145 500.409 113.71 495.088 115.887L493.153 116.613L512.26 152.419L512.744 152.661ZM470.177 88.5484H450.828V105.484H470.177C474.047 105.484 476.465 104.274 477.674 103.065C479.367 101.613 480.093 99.1936 480.093 96.7742C480.093 94.3548 479.367 92.1774 477.674 90.7258C475.981 89.2742 473.321 88.5484 470.177 88.5484ZM393.991 102.097H372.465V89.7581H419.144V71.6129H343.926V152.661H419.144V134.516H372.465V119.032H393.991H418.902V101.855H393.991V102.097ZM591.833 71.6129V89.7581H545.153V102.097H572.726H591.833V119.274H572.726H545.153V134.758H591.833V152.903H516.614V71.6129H591.833ZM249.6 119.032V101.855H230.493H202.921V89.5161H249.6V71.371H174.381V152.419H249.6V134.274H202.921V118.79H230.493H249.6V119.032ZM643.349 69.9194C654.716 69.9194 663.907 72.3387 670.437 76.9355C676.484 81.2903 680.112 87.3387 681.321 95.0806L655.2 97.2581C654.716 93.629 653.507 90.9677 651.572 89.0323C649.637 87.0968 647.219 86.371 644.074 86.371C640.93 86.371 635.851 88.3064 633.191 91.9355C630.288 96.0484 628.595 102.581 628.595 110.806C628.595 119.032 630.288 125.323 633.433 129.677C636.335 133.548 640.205 135.484 645.042 135.484C649.879 135.484 651.814 134.516 654.233 132.581C656.409 130.645 658.344 127.5 659.795 123.145L684.223 130.161C682.047 137.419 677.693 142.984 671.405 147.097C664.149 151.694 654.716 154.113 642.865 154.113C631.014 154.113 616.019 150.484 608.037 143.226C600.056 135.968 595.944 125.323 595.944 111.774C595.944 98.2258 600.056 88.0645 608.037 80.8065C616.26 73.5484 628.112 69.9194 643.591 69.9194H643.349Z" fill="white"/>
</svg>
