<svg width="189" height="64" viewBox="0 0 189 64" fill="none" xmlns="http://www.w3.org/2000/svg">
<g clip-path="url(#clip0_6801_10)">
<path d="M95.0011 56.0039C82.9861 56.0039 71.3307 55.3693 60.358 54.1179C49.7601 52.9091 40.2418 51.1787 32.0686 48.9748C23.8947 46.7709 17.4775 44.2039 12.9953 41.3459C8.35426 38.3872 6.00108 35.2436 6.00108 32.0036C6.00108 28.7636 8.35426 25.6206 12.9953 22.6619C17.4782 19.8039 23.8954 17.2376 32.0686 15.033C40.2424 12.8291 49.7601 11.0987 60.358 9.88993C71.3307 8.63848 82.9861 8.00391 95.0011 8.00391C107.016 8.00391 118.671 8.63848 129.644 9.88993C140.241 11.0987 149.759 12.8291 157.933 15.033C166.107 17.237 172.525 19.8039 177.007 22.6619C181.648 25.6206 184.001 28.7642 184.001 32.0036C184.001 35.243 181.648 38.3866 177.007 41.3453C172.525 44.2033 166.107 46.7696 157.933 48.9742C149.759 51.1781 140.241 52.9085 129.644 54.1173C118.671 55.3687 107.016 56.0033 95.0011 56.0033V56.0039ZM95.0011 10.9724C83.0984 10.9724 71.556 11.6002 60.695 12.8395C50.2443 14.0317 40.8731 15.7341 32.8422 17.8996C25.0713 19.9949 18.761 22.5076 14.5926 25.1649C10.915 27.5097 8.97095 29.8747 8.97095 32.0042C8.97095 34.1337 10.915 36.4993 14.5926 38.8436C18.761 41.5009 25.0713 44.0135 32.8422 46.1088C40.8731 48.2743 50.2437 49.9767 60.695 51.1689C71.556 52.4076 83.0984 53.0361 95.0011 53.0361C106.904 53.0361 118.446 52.4082 129.307 51.1689C139.758 49.9767 149.129 48.2743 157.16 46.1088C164.931 44.0135 171.242 41.5009 175.41 38.8436C179.087 36.4987 181.031 34.1337 181.031 32.0042C181.031 29.8747 179.087 27.5091 175.41 25.1649C171.242 22.5076 164.931 19.9949 157.159 17.8996C149.128 15.7341 139.758 14.0317 129.307 12.8395C118.446 11.6008 106.903 10.9724 95.0005 10.9724H95.0011Z" fill="white"/>
<path d="M31.2266 41.002C26.4623 41.002 23.2616 38.2245 23.2616 32.3724C23.2616 26.5203 26.8842 22.999 33.6586 22.999C38.8449 22.999 41.3507 25.181 41.8721 28.3056L36.289 28.7767C35.991 27.2641 35.1722 26.4953 33.708 26.4953C31.5991 26.4953 30.0855 27.9829 30.0855 31.8763C30.0855 35.7698 31.6241 37.1579 33.981 37.1579C35.2467 37.1579 36.0154 36.7613 36.4129 36.4636V34.5544H33.1127V30.9092H42.5175V40.6792H36.9093C36.9093 39.861 37.0088 39.1916 37.1328 38.4472C36.5375 39.3649 34.8993 41.0014 31.2273 41.0014L31.2266 41.002Z" fill="white"/>
<path d="M149.698 24.4871C149.54 24.376 149.374 24.2717 149.203 24.1729V27.4128H151.829C151.453 26.2029 150.74 25.2205 149.698 24.4871H149.698Z" fill="white"/>
<path d="M149.352 23.3218C149.639 23.4731 149.913 23.6378 150.17 23.8185C151.415 24.6959 152.273 25.9284 152.681 27.4136H154.935V40.6798H161.139V27.4136H166.846V23.3218H149.352H149.352Z" fill="white"/>
<path d="M60.3269 40.6783V23.3203H67.1757L73.9251 32.4704V23.3203H78.8629V40.6783H72.9824L65.2652 30.0901V40.6783H60.3275H60.3269Z" fill="white"/>
<path d="M109.029 40.6783H115.902L111.791 33.0049L112.21 32.8328C113.348 32.3654 115.258 31.1841 115.258 28.5275C115.258 27.0204 114.679 25.7408 113.585 24.8268C112.407 23.8414 110.651 23.3203 108.508 23.3203H96.5726V40.6783H102.627V34.1319H106.027L109.029 40.6783ZM102.627 26.9404H106.796C107.495 26.9404 108.036 27.1021 108.403 27.4212C108.753 27.7251 108.93 28.1553 108.93 28.7014C108.93 29.2475 108.744 29.7356 108.393 30.062C108.136 30.3012 107.651 30.5856 106.796 30.5856H102.627V26.9404Z" fill="white"/>
<path d="M90.4345 29.8418H85.7971V27.1888H95.7972L95.7966 23.3203H79.6925V40.6783H95.7972L95.7966 36.8099H85.7971V33.5119H90.4345V33.5144H95.7972V29.8314H90.4345V29.8418Z" fill="white"/>
<path d="M132.835 27.1888V23.3203H116.731V40.6783H132.835V36.8099H122.835V33.5119H128.729V33.5144H132.823V29.8314H128.729V29.8418H122.835V27.1888H132.835Z" fill="white"/>
<path d="M59.4773 33.5144V29.8314H55.3827V29.8418H49.476V27.1888H59.4761V23.3203H43.3714V40.6783H59.4761V36.8099H49.476V33.5119H55.3827V33.5144H59.4773Z" fill="white"/>
<path d="M149.697 24.4866C148.296 23.4994 146.348 22.999 143.906 22.999C140.61 22.999 138.051 23.7825 136.301 25.3268C134.564 26.8596 133.683 29.0885 133.683 31.9508C133.683 34.8131 134.557 37.1091 136.28 38.6614C138.004 40.2143 140.512 41.0014 143.734 41.0014C146.24 41.0014 148.289 40.4901 149.825 39.4827C151.158 38.6083 152.081 37.3837 152.567 35.8436L147.357 34.3561C147.048 35.3177 146.676 35.9651 146.184 36.3928C145.687 36.8248 145.048 37.0347 144.231 37.0347C143.203 37.0347 142.344 36.607 141.746 35.7979C141.073 34.8863 140.732 33.5256 140.732 31.7525C140.732 29.9793 141.06 28.6034 141.706 27.701C142.271 26.912 143.083 26.4953 144.057 26.4953C144.754 26.4953 145.288 26.685 145.688 27.0749C146.084 27.4612 146.337 28.0341 146.463 28.8261L152.047 28.3551C151.788 26.7046 150.998 25.4031 149.698 24.4866H149.697Z" fill="white"/>
</g>
<defs>
<clipPath id="clip0_6801_10">
<rect width="178" height="48" fill="white" transform="translate(6 8)"/>
</clipPath>
</defs>
</svg>
